<svg xmlns="http://www.w3.org/2000/svg" viewBox="0 0 335.17 314.47" class="s-ion-icon"><defs><style>.cls-1{fill:#004042;}</style></defs><g id="Layer_2" data-name="Layer 2"><g id="Layer_1-2" data-name="Layer 1"><path class="cls-1" d="M333.39,105.19c-2.93-5.4-8.28-6.12-13.79-8-4.1-1.39-9.06-4.81-10.51-9-21.3-62.38-80.39-67-127.64-67.33,0,0-56.46-24-95.59-20.45-2.44.23-4.71,4-5,6.48C79.13,23,86.19,85,128.93,108.48c0,0-1.67,31.34-101,33.5l-.56,0L0,143.44a204,204,0,0,0,163.38,171c8.12-5.28,11.89-10.3,11.89-10.3a436.18,436.18,0,0,1,49.49-60.82c26.56-27.51,23.5-31,49.94-42.64C340.45,171.72,337.37,112.49,333.39,105.19ZM275.31,89c-3.94-8.38-21.77-4.5-21.77-4.5,7.09-7.74,22.08-7.84,26.06-3.35C286.33,88.71,278.19,95.06,275.31,89Z"></path></g></g></svg>