<svg xmlns="http://www.w3.org/2000/svg" viewBox="0 0 219.76 189.83" class="s-ion-icon"><defs><style>.cls-1{fill:#231f20;}.cls-2{fill:#acacac;}.cls-3{fill:#6b6b6b;}</style></defs><g id="Layer_2" data-name="Layer 2"><g id="Layer_1-2" data-name="Layer 1"><rect class="cls-1" y="167.06" width="219.76" height="22.77" rx="2.83"></rect><path class="cls-1" d="M43.59,100.4a58.11,58.11,0,0,1,7.21,4.46c2.58,1.78,3.79,1.78,6.21,1.78,1.27,0,2.87-1,6.21-3.28a35.66,35.66,0,0,1,40.45.26c3.34,2.32,4.94,3.29,6.21,3.29s2.87-1,6.21-3.29a34.44,34.44,0,0,1,20.23-6.42c9.18,0,15.56,4.43,20.22,7.66,2.58,1.78,3.79,1.78,6.21,1.78,1.33,0,3-1,6.21-3.28a34,34,0,0,1,6.82-3.69,6,6,0,0,0,3.79-5.61V73.9A8.6,8.6,0,0,0,171,65.31H48.78a8.6,8.6,0,0,0-8.59,8.59V95A6.08,6.08,0,0,0,43.59,100.4Z"></path><path class="cls-1" d="M200,116.26a10.84,10.84,0,0,0-10.81-10.82,22.7,22.7,0,0,0-13.51,4c-4,2.77-7.76,5.39-12.91,5.39A20.09,20.09,0,0,1,149.84,111c-3.94-2.73-8-5.55-13.52-5.55a22.45,22.45,0,0,0-13.53,4.32c-4,2.77-7.76,5.38-12.91,5.38S101,112.53,97,109.76a22.44,22.44,0,0,0-13.52-4.32,22.7,22.7,0,0,0-13.53,4c-4,2.77-7.76,5.39-12.91,5.39A20.09,20.09,0,0,1,44.1,111c-3.94-2.73-8-5.55-13.53-5.55a10.84,10.84,0,0,0-10.79,10.82v45.52H200Z"></path><path d="M53.71,40.46c-1.45,2.23-3,4.43-4.27,6.74a43.16,43.16,0,0,0-2.77,5.47,17.75,17.75,0,0,0-1.12,4.11,9.44,9.44,0,0,0,1.56,6.51,4.87,4.87,0,0,0,1.27,1.33,3.18,3.18,0,0,0,4.73-.78,8.48,8.48,0,0,0,1.1-2.46c.26-.87.46-1.75.7-2.62a60.28,60.28,0,0,1,9.39-19.4,30.62,30.62,0,0,1,6.4-6.46,68.7,68.7,0,0,1,8.35-5.44,4.24,4.24,0,0,0,1.29-1.09c3.4-4.22,6.82-8.43,10.21-12.65a32.52,32.52,0,0,1,6.89-6.36,71.89,71.89,0,0,1,11-6A18,18,0,0,1,112.92,0a.4.4,0,0,1,.27.06.28.28,0,0,1,0,.38l-2.7,3.67c-.2.27-.42.52-.59.8a1.22,1.22,0,0,0,.17,1.69,10.74,10.74,0,0,0,1.07.94c.52.41,1,.8,1.58,1.21a2,2,0,0,1,.84,2c-.11.71-.17,1.42-.26,2.12a1.6,1.6,0,0,0,.47,1.43,50.37,50.37,0,0,0,4.68,4.79,2.64,2.64,0,0,1,.49.51.88.88,0,0,1,0,1.18,12.89,12.89,0,0,1-2.81,2.61,3.34,3.34,0,0,1-2.07.42,10.82,10.82,0,0,1-3.07-.58c-1.16-.42-2.34-.8-3.47-1.29a2.61,2.61,0,0,0-3,.61A6,6,0,0,0,103,24.91a24.35,24.35,0,0,0-1.1,4.27c-.18.89-.34,1.77-.53,2.66a3.38,3.38,0,0,0,0,1.55c.31,1.24.65,2.48,1,3.71a3.31,3.31,0,0,0,.14.41c.28.66.4.72,1.08.51l6-1.89c1.09-.35,2.15-.76,3.24-1.1a2.57,2.57,0,0,0,1.87-2.28c.11-.75.1-1.52.15-2.28s.06-1.71.18-2.55a2.61,2.61,0,0,1,2.86-2,1.43,1.43,0,0,1,1,1.51c0,.42-.15.84-.23,1.26-.13.26.08.5,0,.76a6,6,0,0,0-.82,3.38,3.28,3.28,0,0,1-1,2.45,13.92,13.92,0,0,1-2.54,2.49C110,41,105.5,44.13,100.83,47a5.15,5.15,0,0,1-1.82.78,1.16,1.16,0,0,0-.87.64,13.36,13.36,0,0,0-1.93,5.76c-.18,1.9-.34,3.79-.37,5.69s.2,3.61.33,5.41a2.32,2.32,0,0,0,1.75,2.18c1.31.42,1.69,1.58,2.11,2.69a.46.46,0,0,1-.32.56,2.68,2.68,0,0,1-.84.13c-1.56,0-3.13,0-4.7,0a1.66,1.66,0,0,1-1.62-.92,12.17,12.17,0,0,1-1.41-3.42c-1-4.25-2.12-8.48-2.72-12.81a2.84,2.84,0,0,0-.08-.42.46.46,0,0,0-.52-.37,8.18,8.18,0,0,0-1.12.19,10.25,10.25,0,0,0-2.33.61,6.06,6.06,0,0,0,.24,2.36,8.93,8.93,0,0,1-2.51,7.7l-2.33,2.3a2.87,2.87,0,0,0-.44.55.2.2,0,0,0,.17.31l1.71,0a18.88,18.88,0,0,1,2.13,0A3.18,3.18,0,0,1,86,69.72a.9.9,0,0,1-.88,1.07,8.19,8.19,0,0,1-1,0q-13.26,0-26.52,0A6.13,6.13,0,0,1,56,70.69a12.35,12.35,0,0,0-3-.35,27.41,27.41,0,0,1-4.24-.5,13.52,13.52,0,0,1-4.12-1.55A8.74,8.74,0,0,1,40.25,61a17.76,17.76,0,0,1,4.31-13.2,36.62,36.62,0,0,1,8.71-7.51,1.92,1.92,0,0,1,.39-.17A.26.26,0,0,1,53.71,40.46Z"></path><path d="M117.88,32.83a3.58,3.58,0,0,0-.41-1.19,1.08,1.08,0,0,1,.13-1.18c.28-.38.51-.79.76-1.18.28.15.24.33.11.48.17-.21.11-.64.49-.8a.85.85,0,0,1,.88-.34,1.4,1.4,0,0,1,1,.74,3.32,3.32,0,0,1,.39,1.51,13.71,13.71,0,0,1,0,1.57,3.15,3.15,0,0,0,.56,2c.43.62.84,1.27,1.32,1.86,1.17,1.43,2.36,2.86,3.57,4.26a1.55,1.55,0,0,0,2.64,0l.09-.11A12.18,12.18,0,0,0,131,35.79a16.21,16.21,0,0,0-.35-4.11,5.69,5.69,0,0,0-4-4.73,3.07,3.07,0,0,1-2.56-3.41,21.69,21.69,0,0,1,0-2.42c.13-.79.39-1.09,1.17-1.21a9.52,9.52,0,0,1,1.42-.07,2.29,2.29,0,0,0,1.7-.57,5,5,0,0,1,4.37-1.22,21.77,21.77,0,0,0,2.41.21c.86,0,1.24-.35,1.2-1.2,0-.47-.13-.94-.17-1.41a1.55,1.55,0,0,1,.14-1,.45.45,0,0,1,.62-.13,2.49,2.49,0,0,1,.65,1.08,21.25,21.25,0,0,1,1.4,5.37c.21,1.79.37,3.59.58,5.38.1.95.23,1.89.38,2.83a8.69,8.69,0,0,0,1.52,3.8c.72,1,1.38,2,2.05,3.08a2.32,2.32,0,0,0,1.19,1c.93.34,1.86.71,2.78,1.09s1.86.74,2.75,1.18a14.9,14.9,0,0,1,6.47,5.83A42.4,42.4,0,0,1,161.51,57a20.92,20.92,0,0,1,.49,4.38,6.78,6.78,0,0,0,3.49,5.85,8.65,8.65,0,0,0,7.67.83,6.41,6.41,0,0,0,4.32-5.24,8.94,8.94,0,0,0-.77-5.55,14.36,14.36,0,0,0-3.58-4.57c-.56-.51-1.18-1-1.75-1.46s-.65-1-.39-1.23a1.09,1.09,0,0,1,1.21-.09,2.51,2.51,0,0,1,.61.36,20.38,20.38,0,0,1,4.82,4.81,10.51,10.51,0,0,1,1.87,7.29,9.15,9.15,0,0,1-7.72,8.19,21.84,21.84,0,0,1-7.52-.14A14.66,14.66,0,0,1,161,69.29c-.57-.25-.65-.25-1.06.3a2.23,2.23,0,0,1-1.95,1c-4.47,0-8.93,0-13.4,0-.37,0-.82.09-1-.33a1.28,1.28,0,0,1,.16-1.34,1.63,1.63,0,0,1,1.46-.74c.38,0,.76.1,1.13.14.62.06,1.23.11,1.85.15a.46.46,0,0,0,.48-.22c.13-.28-.07-.44-.24-.6a1.24,1.24,0,0,0-.23-.17,37.17,37.17,0,0,1-6.49-6c-.12-.14-.25-.32-.46-.19a.62.62,0,0,0-.22.34,3.69,3.69,0,0,0-.11.56c-.18,1.22-.34,2.45-.55,3.67-.15.84-.34,1.67-.56,2.5a7.13,7.13,0,0,1-.57,1.3,1.59,1.59,0,0,1-1.62.93c-1,0-2,0-3,0-.3,0-.58-.07-.67-.41a.78.78,0,0,1,.23-.78,1.53,1.53,0,0,1,.6-.36,4,4,0,0,1,.84-.11,1.07,1.07,0,0,0,1-.84,13.72,13.72,0,0,0,.55-3.37,42.11,42.11,0,0,0-.39-6.82c-.1-.9-.29-1.78-.4-2.68a1.8,1.8,0,0,0-.65-1.21c-.72-.62-1.43-1.26-2.11-1.92a10.37,10.37,0,0,1-2.86-4.2,1.12,1.12,0,0,0-.9-.8c-.78-.2-1.57-.38-2.34-.61a6.11,6.11,0,0,1-3.8-3c-1.17-2.12-2.38-4.22-3.58-6.33a15.51,15.51,0,0,1-1.75-4.94c-.19-.11-.15-.29-.16-.46v0c0,.17,0,.35-.13.48Z"></path><path d="M119,29a1.82,1.82,0,0,1-.14.39c-.08.13-.06.42-.32.31-.09,0-.1-.25-.14-.38l.31-.59Z"></path><path d="M118.43,31.56v.57h-.29l0-.57C118.24,31.37,118.33,31.36,118.43,31.56Z"></path><path class="cls-2" d="M54,39.83c.06,0,.17,0,.19.05s0,.22-.14.29C53.81,40.08,53.79,40,54,39.83Z"></path><path class="cls-3" d="M54,39.83c0,.11,0,.22,0,.34l-.29.29-.05-.39A.33.33,0,0,1,54,39.83Z"></path><path d="M118.43,31.56h-.26c0-.18-.06-.45.12-.46S118.47,31.38,118.43,31.56Z"></path></g></g></svg>