<svg xmlns="http://www.w3.org/2000/svg" viewBox="0 0 100.12 209.7" class="s-ion-icon"><defs><style>.cls-1{fill:#003e40;}</style></defs><g id="Layer_2" data-name="Layer 2"><g id="Layer_1-2" data-name="Layer 1"><path class="cls-1" d="M45.06,11.81A43.24,43.24,0,1,0,88.3,55.05,43.29,43.29,0,0,0,45.06,11.81Zm0,76.78A33.54,33.54,0,1,1,78.6,55.05,33.58,33.58,0,0,1,45.06,88.59Z"></path><polygon class="cls-1" points="82.61 17.29 87.4 34.75 100.12 21.87 82.61 17.29"></polygon><polygon class="cls-1" points="82.77 17.45 65.26 12.88 77.98 0 82.77 17.45"></polygon><rect class="cls-1" x="0.53" y="122.22" width="87.48" height="87.48"></rect><rect class="cls-1" x="7.12" y="106.31" width="31.81" height="31.81" transform="translate(-79.68 52.08) rotate(-45)"></rect><path class="cls-1" d="M45.62,121.8l-.26-.27-.27-.26L23,99.2l-23,23,23,23,22.07-22.07.27-.26.26-.27.43-.42Zm-.79.58-.27.26L23,144.18l-22-22,22-22L44.56,121.8l.27.26.16.16Z"></path><rect class="cls-1" x="51.26" y="106.31" width="31.81" height="31.81" transform="translate(-66.75 83.29) rotate(-45)"></rect><path class="cls-1" d="M67.16,99.2l-23,23,.42.42.27.27.26.26,22.07,22.07L88,124.39l2.17-2.17Zm-21.8,23.18-.16-.16,22-22,22,22L88,123.33,67.16,144.18Z"></path></g></g></svg>